<svg id="Layer_1" data-name="Layer 1" xmlns="http://www.w3.org/2000/svg" viewBox="0 0 600.8 133.2"><title>Artboard 1</title><path d="M480.56,52.21a7,7,0,0,1-.48,2.7,5.36,5.36,0,0,1-1.36,2,5.73,5.73,0,0,1-2.08,1.19,8.4,8.4,0,0,1-2.65.4h-5.18v7.41h-3V46h8.32a7.88,7.88,0,0,1,2.54.4,5.62,5.62,0,0,1,2,1.18,5.41,5.41,0,0,1,1.33,1.94A7,7,0,0,1,480.56,52.21Zm-3,0a3.34,3.34,0,0,0-.92-2.53,3.44,3.44,0,0,0-2.48-.88h-5.32v6.84h5.32a3.32,3.32,0,0,0,2.55-.91A3.55,3.55,0,0,0,477.52,52.21Z" fill="#69b245"/><path d="M492.08,54.06a5,5,0,0,0-1-.4,4.71,4.71,0,0,0-1.25-.14,2.59,2.59,0,0,0-2.16,1,4.55,4.55,0,0,0-.77,2.87v8.51h-3V51h3v1.42a4.15,4.15,0,0,1,3.41-1.73,5.91,5.91,0,0,1,1.49.16,3.34,3.34,0,0,1,1,.47Z" fill="#69b245"/><path d="M507.72,58.34a10,10,0,0,1-.51,3.31,7.15,7.15,0,0,1-1.42,2.47,6.07,6.07,0,0,1-2.13,1.53,6.67,6.67,0,0,1-2.67.53A6,6,0,0,1,496.31,64a7.44,7.44,0,0,1-1.38-2.44,9.57,9.57,0,0,1-.5-3.18,9.73,9.73,0,0,1,.51-3.26,7.31,7.31,0,0,1,1.4-2.45,6,6,0,0,1,2.1-1.53,6.51,6.51,0,0,1,2.63-.52,6.3,6.3,0,0,1,4.75,2.1,7,7,0,0,1,1.39,2.43A9.61,9.61,0,0,1,507.72,58.34Zm-3,.09a6,6,0,0,0-1-3.65,3.3,3.3,0,0,0-2.8-1.35,3,3,0,0,0-2.63,1.35,6.06,6.06,0,0,0-1,3.56,6,6,0,0,0,1,3.76,3.27,3.27,0,0,0,2.7,1.29,2.93,2.93,0,0,0,1.5-.4,3.77,3.77,0,0,0,1.16-1.06,4.93,4.93,0,0,0,.74-1.58A7.1,7.1,0,0,0,504.76,58.43Z" fill="#69b245"/><path d="M520.69,55.25a6.89,6.89,0,0,0-1.77-1.38,4,4,0,0,0-1.86-.44,3,3,0,0,0-2.55,1.32,6.15,6.15,0,0,0-.94,3.62,8.46,8.46,0,0,0,.23,2,4.85,4.85,0,0,0,.68,1.59,3.24,3.24,0,0,0,1.12,1,3.14,3.14,0,0,0,1.55.37,3.19,3.19,0,0,0,1.77-.47,9.5,9.5,0,0,0,1.6-1.38l1.87,1.84a9,9,0,0,1-.94,1.06,6.23,6.23,0,0,1-1.15.88,5.94,5.94,0,0,1-1.43.61,6.63,6.63,0,0,1-1.82.23,5.89,5.89,0,0,1-2.54-.55,6.07,6.07,0,0,1-2-1.56,7.41,7.41,0,0,1-1.36-2.43,9.57,9.57,0,0,1-.5-3.18,9.82,9.82,0,0,1,.51-3.29,7.47,7.47,0,0,1,1.39-2.45,5.86,5.86,0,0,1,2.07-1.53,6.27,6.27,0,0,1,2.55-.52,6.54,6.54,0,0,1,2.94.64,7.3,7.3,0,0,1,2.34,1.89Z" fill="#69b245"/><path d="M537.74,58.12c0,.27,0,.52,0,.75s0,.43-.06.58h-9.85a6.11,6.11,0,0,0,.45,1.85,4,4,0,0,0,.85,1.26,3.35,3.35,0,0,0,1.14.74,3.58,3.58,0,0,0,1.31.24,4.57,4.57,0,0,0,1.72-.31,6.35,6.35,0,0,0,1.52-.88l1.73,1.87a7.35,7.35,0,0,1-2.21,1.45,7.55,7.55,0,0,1-2.92.51,6.17,6.17,0,0,1-2.48-.51,5.81,5.81,0,0,1-2.06-1.5,7.29,7.29,0,0,1-1.39-2.44,9.86,9.86,0,0,1-.51-3.29,10.58,10.58,0,0,1,.48-3.35,7,7,0,0,1,1.33-2.43,5.57,5.57,0,0,1,2.06-1.49,6.74,6.74,0,0,1,2.65-.51,6.06,6.06,0,0,1,2.77.6,5.63,5.63,0,0,1,2,1.62,7,7,0,0,1,1.16,2.38A10.57,10.57,0,0,1,537.74,58.12Zm-3.22-2.53a3.45,3.45,0,0,0-.64-1.19,3,3,0,0,0-1.07-.81,3.64,3.64,0,0,0-1.55-.3,3,3,0,0,0-2.34,1A4.89,4.89,0,0,0,527.87,57h6.92A6.49,6.49,0,0,0,534.52,55.59Z" fill="#69b245"/><path d="M551.51,61.78a4.23,4.23,0,0,1-.47,2.09,3.86,3.86,0,0,1-1.24,1.35A5.24,5.24,0,0,1,548,66a9.61,9.61,0,0,1-2.11.23,9.06,9.06,0,0,1-3.05-.54,10.41,10.41,0,0,1-2.65-1.36l1.33-2.21a8.22,8.22,0,0,0,2.17,1.11,6.92,6.92,0,0,0,2.17.37q2.72,0,2.72-1.65a1.53,1.53,0,0,0-.92-1.36,21.23,21.23,0,0,0-2.54-1.14,15.38,15.38,0,0,1-2-.92,5.91,5.91,0,0,1-1.36-1,3.19,3.19,0,0,1-.75-1.21,4.79,4.79,0,0,1-.23-1.55,4,4,0,0,1,.37-1.76,3.43,3.43,0,0,1,1-1.28,4.75,4.75,0,0,1,1.62-.77,7.75,7.75,0,0,1,2-.26,8.37,8.37,0,0,1,2.74.45,8.48,8.48,0,0,1,2.31,1.19l-1.28,2.24a6.9,6.9,0,0,0-1.85-1,6.32,6.32,0,0,0-2-.31,2.52,2.52,0,0,0-1.56.38,1.2,1.2,0,0,0-.48,1,1.22,1.22,0,0,0,.11.52,1.52,1.52,0,0,0,.43.5,4.81,4.81,0,0,0,.84.53q.52.27,1.38.61,1.25.48,2.19.92a6.85,6.85,0,0,1,1.58,1,3.52,3.52,0,0,1,1,1.29A4.58,4.58,0,0,1,551.51,61.78Z" fill="#69b245"/><path d="M565.39,61.78a4.23,4.23,0,0,1-.47,2.09,3.86,3.86,0,0,1-1.24,1.35,5.24,5.24,0,0,1-1.77.74,9.61,9.61,0,0,1-2.11.23,9.06,9.06,0,0,1-3.05-.54,10.41,10.41,0,0,1-2.65-1.36l1.33-2.21a8.22,8.22,0,0,0,2.17,1.11,6.92,6.92,0,0,0,2.17.37q2.72,0,2.72-1.65a1.53,1.53,0,0,0-.92-1.36A21.23,21.23,0,0,0,559,59.39a15.38,15.38,0,0,1-2-.92,5.91,5.91,0,0,1-1.36-1,3.19,3.19,0,0,1-.75-1.21,4.79,4.79,0,0,1-.23-1.55A4,4,0,0,1,555,53a3.43,3.43,0,0,1,1-1.28,4.75,4.75,0,0,1,1.62-.77,7.75,7.75,0,0,1,2-.26,8.37,8.37,0,0,1,2.74.45,8.48,8.48,0,0,1,2.31,1.19l-1.28,2.24a6.9,6.9,0,0,0-1.85-1,6.32,6.32,0,0,0-2-.31,2.52,2.52,0,0,0-1.56.38,1.2,1.2,0,0,0-.48,1,1.22,1.22,0,0,0,.11.52,1.52,1.52,0,0,0,.43.5,4.81,4.81,0,0,0,.84.53q.52.27,1.38.61,1.25.48,2.19.92a6.85,6.85,0,0,1,1.58,1,3.52,3.52,0,0,1,1,1.29A4.58,4.58,0,0,1,565.39,61.78Z" fill="#69b245"/><path d="M465.85,94.25V74.38h12.77V77.3h-9.82v4.85h5.7v2.92h-5.7v6.24h10.24v2.92Z" fill="#69b245"/><path d="M491.2,94.25l-1.42-2.58q-.46-.82-.89-1.7t-.67-1.31a5.53,5.53,0,0,1-.27.58l-.41.77-.48.87-.45.82-1.45,2.55h-3.29l4.68-7.72-4.37-7.18h3.38l1.16,2.1q.45.82.91,1.69t.65,1.29l.3-.55.4-.78.44-.87c.15-.29.3-.57.45-.84l1.14-2h3.35l-4.4,7.18,4.71,7.72Z" fill="#69b245"/><path d="M506.75,83.63A6.91,6.91,0,0,0,505,82.25a4.05,4.05,0,0,0-1.86-.44,3,3,0,0,0-2.55,1.32,6.16,6.16,0,0,0-.94,3.62,8.46,8.46,0,0,0,.23,2,4.88,4.88,0,0,0,.68,1.59,3.25,3.25,0,0,0,1.12,1,3.14,3.14,0,0,0,1.55.37,3.2,3.2,0,0,0,1.77-.47,9.6,9.6,0,0,0,1.6-1.38l1.87,1.84a8.9,8.9,0,0,1-.94,1.06,6.27,6.27,0,0,1-1.15.88,6,6,0,0,1-1.43.61,6.64,6.64,0,0,1-1.82.23,5.88,5.88,0,0,1-2.54-.55,6.09,6.09,0,0,1-2-1.56A7.46,7.46,0,0,1,497.17,90a9.58,9.58,0,0,1-.5-3.18,9.86,9.86,0,0,1,.51-3.29,7.45,7.45,0,0,1,1.39-2.45,5.85,5.85,0,0,1,2.07-1.53A6.27,6.27,0,0,1,503.2,79a6.55,6.55,0,0,1,2.94.64,7.31,7.31,0,0,1,2.34,1.89Z" fill="#69b245"/><path d="M523.81,86.5c0,.27,0,.52,0,.75s0,.43-.06.58h-9.85a6.11,6.11,0,0,0,.45,1.85,4,4,0,0,0,.85,1.26,3.34,3.34,0,0,0,1.14.74,3.58,3.58,0,0,0,1.31.24,4.58,4.58,0,0,0,1.72-.31,6.37,6.37,0,0,0,1.52-.88l1.73,1.87A7.35,7.35,0,0,1,520.37,94a7.56,7.56,0,0,1-2.92.51A6.18,6.18,0,0,1,515,94a5.81,5.81,0,0,1-2.06-1.5,7.31,7.31,0,0,1-1.39-2.44,9.82,9.82,0,0,1-.51-3.29,10.58,10.58,0,0,1,.48-3.35A7,7,0,0,1,512.82,81a5.56,5.56,0,0,1,2.06-1.49,6.73,6.73,0,0,1,2.65-.51,6.06,6.06,0,0,1,2.77.6,5.63,5.63,0,0,1,2,1.62,7,7,0,0,1,1.16,2.38A10.51,10.51,0,0,1,523.81,86.5ZM520.59,84a3.43,3.43,0,0,0-.64-1.19,3,3,0,0,0-1.06-.81,3.64,3.64,0,0,0-1.55-.3,3,3,0,0,0-2.34,1,4.88,4.88,0,0,0-1.07,2.77h6.92A6.42,6.42,0,0,0,520.59,84Z" fill="#69b245"/><path d="M527.58,94.25V75.09l3-1.53V94.25Z" fill="#69b245"/><path d="M535.1,94.25V75.09l3-1.53V94.25Z" fill="#69b245"/><path d="M554.57,86.5c0,.27,0,.52,0,.75s0,.43-.06.58h-9.85a6.11,6.11,0,0,0,.45,1.85,4,4,0,0,0,.85,1.26,3.34,3.34,0,0,0,1.14.74,3.58,3.58,0,0,0,1.31.24,4.58,4.58,0,0,0,1.72-.31,6.37,6.37,0,0,0,1.52-.88l1.73,1.87A7.35,7.35,0,0,1,551.14,94a7.56,7.56,0,0,1-2.92.51,6.18,6.18,0,0,1-2.48-.51,5.81,5.81,0,0,1-2.06-1.5,7.31,7.31,0,0,1-1.39-2.44,9.82,9.82,0,0,1-.51-3.29,10.58,10.58,0,0,1,.48-3.35A7,7,0,0,1,543.59,81a5.56,5.56,0,0,1,2.06-1.49A6.73,6.73,0,0,1,548.3,79a6.06,6.06,0,0,1,2.77.6,5.63,5.63,0,0,1,2,1.62,7,7,0,0,1,1.16,2.38A10.51,10.51,0,0,1,554.57,86.5ZM551.35,84a3.43,3.43,0,0,0-.64-1.19,3,3,0,0,0-1.06-.81,3.64,3.64,0,0,0-1.55-.3,3,3,0,0,0-2.34,1,4.88,4.88,0,0,0-1.07,2.77h6.92A6.42,6.42,0,0,0,551.35,84Z" fill="#69b245"/><path d="M567.23,94.25V85.84a4.82,4.82,0,0,0-.8-3.17,2.83,2.83,0,0,0-2.24-.91,2.71,2.71,0,0,0-2.25,1,4.41,4.41,0,0,0-.79,2.8v8.69h-3V79.36h3l0,1.42a3.73,3.73,0,0,1,1.57-1.29,5.18,5.18,0,0,1,2.17-.46,4.78,4.78,0,0,1,4,1.67,7.85,7.85,0,0,1,1.35,5v8.54Z" fill="#69b245"/><path d="M583.75,83.63A6.89,6.89,0,0,0,582,82.25a4,4,0,0,0-1.86-.44,3,3,0,0,0-2.55,1.32,6.15,6.15,0,0,0-.94,3.62,8.46,8.46,0,0,0,.23,2,4.85,4.85,0,0,0,.68,1.59,3.24,3.24,0,0,0,1.12,1,3.14,3.14,0,0,0,1.55.37,3.19,3.19,0,0,0,1.77-.47,9.5,9.5,0,0,0,1.6-1.38l1.87,1.84a9,9,0,0,1-.94,1.06,6.23,6.23,0,0,1-1.15.88,5.94,5.94,0,0,1-1.43.61,6.63,6.63,0,0,1-1.82.23,5.89,5.89,0,0,1-2.54-.55,6.07,6.07,0,0,1-2-1.56A7.41,7.41,0,0,1,574.17,90a9.57,9.57,0,0,1-.5-3.18,9.82,9.82,0,0,1,.51-3.29,7.47,7.47,0,0,1,1.39-2.45,5.86,5.86,0,0,1,2.07-1.53A6.27,6.27,0,0,1,580.2,79a6.54,6.54,0,0,1,2.94.64,7.3,7.3,0,0,1,2.34,1.89Z" fill="#69b245"/><path d="M600.8,86.5c0,.27,0,.52,0,.75s0,.43-.06.58h-9.85a6.11,6.11,0,0,0,.45,1.85,4,4,0,0,0,.85,1.26,3.35,3.35,0,0,0,1.14.74,3.58,3.58,0,0,0,1.31.24,4.57,4.57,0,0,0,1.72-.31,6.35,6.35,0,0,0,1.52-.88l1.73,1.87A7.35,7.35,0,0,1,597.37,94a7.55,7.55,0,0,1-2.92.51A6.17,6.17,0,0,1,592,94a5.81,5.81,0,0,1-2.06-1.5,7.29,7.29,0,0,1-1.39-2.44,9.86,9.86,0,0,1-.51-3.29,10.58,10.58,0,0,1,.48-3.35A7,7,0,0,1,589.82,81a5.57,5.57,0,0,1,2.06-1.49,6.74,6.74,0,0,1,2.65-.51,6.06,6.06,0,0,1,2.77.6,5.63,5.63,0,0,1,2,1.62,7,7,0,0,1,1.16,2.38A10.57,10.57,0,0,1,600.8,86.5ZM597.58,84a3.45,3.45,0,0,0-.64-1.19,3,3,0,0,0-1.07-.81,3.64,3.64,0,0,0-1.55-.3,3,3,0,0,0-2.34,1,4.89,4.89,0,0,0-1.06,2.77h6.92A6.49,6.49,0,0,0,597.58,84Z" fill="#69b245"/><g id="_Group_" data-name="&lt;Group&gt;"><rect id="SVGID" width="416.74" height="133.2" fill="none"/><g id="_Group_2" data-name="&lt;Group&gt;"><g id="_Group_3" data-name="&lt;Group&gt;"><path id="_Path_" data-name="&lt;Path&gt;" d="M183.71,59.11c.07-2.64-.14-5.2-1.32-6.66s-4-1.94-5.13-1.94c-4.86,0-6.73,2.91-6.94,3.54S169,55.71,169,63.55V75.83c0,11.24,3.68,12.56,8.19,12.56,1.8,0,7.22-.62,7.28-9.57h6c.28,14.5-10,14.5-13,14.5-5.69,0-14.5-.42-14.5-18.18v-13c0-13,5.69-16.65,14.71-16.65s12.63,4.72,12,13.6Z" fill="#010101"/><path id="_Compound_Path_" data-name="&lt;Compound Path&gt;" d="M195.5,76.8c0-9.43,1.11-17.14,12.21-17.14s12.21,7.77,12.21,17.14C219.92,91,214.51,93,207.71,93S195.5,91,195.5,76.8m18.94-2.22c0-8.81-2.71-10.68-6.73-10.68S201,65.77,201,74.58c0,10.41,1.32,14.15,6.73,14.15s6.73-3.75,6.73-14.15" fill="#010101"/><path id="_Compound_Path_2" data-name="&lt;Compound Path&gt;" d="M243.3,60.29h5.2V95.6c0,7.21-4.79,8.88-11.86,8.88-5.34,0-10.2-2.71-9.71-8.6h5.83c.07,3,2,4.65,4.93,4.65,3.61,0,5.62-2.22,5.62-5.55V88.31h-.21a8,8,0,0,1-7.08,4c-8.74,0-10.41-7.49-10.41-17.07,0-14.78,7.42-15.68,10.06-15.68a7.68,7.68,0,0,1,7.49,4.58h.14ZM237.19,64c-5.9,0-6.1,7.15-6.1,11.38,0,10.34,2.36,12.7,6.24,12.7,6.31,0,6.1-7.42,6.1-11.86,0-4.79.35-12.21-6.24-12.21" fill="#010101"/><path id="_Path_2" data-name="&lt;Path&gt;" d="M274.38,92.41V70.14c0-3.47-1.18-6.24-5.69-6.24-5.76,0-6.52,5.06-6.52,9.43v19H257V66.88c0-2.22-.14-4.44-.35-6.66h5.55v4.16h.28c2-3.61,4.44-4.79,8.6-4.79,6.87,0,8.6,4.16,8.6,10.48V92.34h-5.27Z" fill="#010101"/><path id="_Compound_Path_3" data-name="&lt;Compound Path&gt;" d="M288.81,46.48h5.83V52.1h-5.83Zm5.55,45.93h-5.2V60.29h5.2Z" fill="#010101"/><polygon id="_Path_3" data-name="&lt;Path&gt;" points="322.11 65.07 307.96 88.11 322.59 88.11 322.59 92.41 302.27 92.41 302.27 87.48 316.28 64.66 316.28 64.52 302.96 64.52 302.96 60.29 322.11 60.29 322.11 65.07" fill="#010101"/><path id="_Compound_Path_4" data-name="&lt;Compound Path&gt;" d="M345.21,87.76h-.14C343.48,91.44,341,93,337,93c-6.8,0-8.74-4.37-8.74-10.54,0-9.71,9.5-10.2,16.86-10,.14-4.23.21-8.88-5.41-8.88-3.47,0-5.34,2.36-5,5.69H329c.28-7.22,4.09-9.64,10.89-9.64,8.26,0,10.41,4.23,10.41,9.64V84.78a55.68,55.68,0,0,0,.62,7.63h-5.76V87.76Zm-11.79-4.93c0,3.12,1.53,5.9,5,5.9,3.19,0,7.15-1.94,6.59-12.35-4.86.14-11.59-.35-11.59,6.45" fill="#010101"/><path id="_Path_4" data-name="&lt;Path&gt;" d="M376.15,92.41V70.14c0-3.47-1.18-6.24-5.62-6.24-5.76,0-6.52,5.06-6.52,9.43v19h-5.2V66.88c0-2.22-.14-4.44-.35-6.66H364v4.16h.28c2-3.61,4.44-4.79,8.6-4.79,6.87,0,8.6,4.16,8.6,10.48V92.34h-5.34Z" fill="#010101"/><path id="_Path_5" data-name="&lt;Path&gt;" d="M391.69,60.29V54.11l5.2-2.36v8.53h7v4h-7V83.87c0,2,0,4.65,4.79,4.65.42,0,1.18-.14,2.36-.28v4c-1.73.14-3.4.49-5.13.49-4.93,0-7.22-2-7.22-5.69V64.24h-5.27v-4Z" fill="#010101"/></g><g id="_Group_4" data-name="&lt;Group&gt;"><path id="_Path_6" data-name="&lt;Path&gt;" d="M73,10.13a59.11,59.11,0,1,0,59.11,59.11A59.11,59.11,0,0,0,73,10.13" fill="#010101"/><path id="_Path_7" data-name="&lt;Path&gt;" d="M77.56,103c0,2.78-1.18,6-4.58,6s-4.44-3.19-4.44-6V94.56A111.85,111.85,0,0,1,43.08,78.32v23.73c0,17.21,13.6,25.81,29.83,25.81,15.75,0,29.48-8.26,30-24.91A82.34,82.34,0,0,1,77.56,98.1Z" fill="#50b1cc"/><path id="_Path_8" data-name="&lt;Path&gt;" d="M93.59,82.21h-16a23.77,23.77,0,0,0,10.89,3.12c3.75.07,5.13-1.18,5.13-3.12" fill="#50b1cc"/><path id="_Path_9" data-name="&lt;Path&gt;" d="M57.16,50.92c-10.41,0-2.91,10.2,4.16,18A76.57,76.57,0,0,0,68.54,76V54.53c-.62-.35-1.18-.69-1.8-1a20.8,20.8,0,0,0-9.57-2.64" fill="#50b1cc"/><path id="_Path_10" data-name="&lt;Path&gt;" d="M68.54,35.31c0-2.77,1-6,4.44-6s4.58,3.19,4.58,6v6.45a93.39,93.39,0,0,1,15.05,8.81H103V36.35c0-17.2-14-25.81-30-25.81-15.26,0-28.24,7.63-29.69,22.82a85,85,0,0,1,25.25,4.79V35.31Z" fill="#50b1cc"/><path id="_Path_11" data-name="&lt;Path&gt;" d="M118.49,75.55l-28.1.07c1.87,2.5,3.19,4.86,3.19,6.66H103V103h1.46c9.78,0,17.14-1.94,20.19-6.17,3.12-4.44,1.66-11.38-6.17-21.3" fill="#69b245"/><path id="_Path_12" data-name="&lt;Path&gt;" d="M43.29,33.37H41.14c-23.24,0-28.17,13-7.77,35.45a103.69,103.69,0,0,0,9.71,9.43V36.35c.07-1,.14-2,.21-3" fill="#69b245"/><path id="_Path_13" data-name="&lt;Path&gt;" d="M77.56,41.76c-3-1.39-6-2.64-9-3.68V54.53a33.62,33.62,0,0,1,7.28,5.83l28.24-.07a91.7,91.7,0,0,0-11.45-9.64H77.56Z" fill="#69b245"/><path id="_Path_14" data-name="&lt;Path&gt;" d="M77.56,98.17V82.28a52.89,52.89,0,0,1-9-6.24V94.56c3.05,1.32,6,2.57,9,3.61" fill="#69b245"/><path id="_Path_15" data-name="&lt;Path&gt;" d="M68.54,76a86.36,86.36,0,0,1-7.28-7.08c-7.08-7.77-14.64-18-4.16-18a20.24,20.24,0,0,1,9.64,2.64c.62.28,1.18.62,1.8,1V38.16a85,85,0,0,0-25.25-4.79c-.07,1-.14,1.94-.14,3v42A106.7,106.7,0,0,0,68.61,94.56V76Z" fill="#75caef"/><path id="_Path_16" data-name="&lt;Path&gt;" d="M77.56,50.64H92.62a93.39,93.39,0,0,0-15.05-8.81Z" fill="#75caef"/><path id="_Path_17" data-name="&lt;Path&gt;" d="M103,82.21H93.59c0,1.87-1.39,3.12-5.13,3.12a23.77,23.77,0,0,1-10.89-3.12V98.1A84.43,84.43,0,0,0,103,103V82.21Z" fill="#75caef"/><path id="_Compound_Path_5" data-name="&lt;Compound Path&gt;" d="M137.15,108a5.36,5.36,0,1,1,1.53-3.75,5.08,5.08,0,0,1-1.53,3.75m-6.94-6.94a4.29,4.29,0,0,0-1.32,3.19,4.45,4.45,0,0,0,1.32,3.26,4.29,4.29,0,0,0,3.19,1.32,4.19,4.19,0,0,0,3.19-1.32,4.34,4.34,0,0,0,1.32-3.26,4.19,4.19,0,0,0-1.32-3.19,4.52,4.52,0,0,0-6.38,0m3.12.28a4.66,4.66,0,0,1,1.6.21,1.45,1.45,0,0,1,.9,1.46,1.26,1.26,0,0,1-.56,1.11,2.34,2.34,0,0,1-.83.28,1.36,1.36,0,0,1,1,.56,1.63,1.63,0,0,1,.35.9v.83c0,.14,0,.28.07.28l.07.07h-1v-.83a1.41,1.41,0,0,0-.56-1.32,2.24,2.24,0,0,0-1.11-.21h-1V107h-1v-5.83h2.08Zm1.11.9a2.9,2.9,0,0,0-1.25-.21h-.9v2.08h.9a3.22,3.22,0,0,0,1-.14.9.9,0,0,0,.62-.9,1,1,0,0,0-.35-.83" fill="#010101"/></g></g></g><rect x="433.68" y="10.55" width="2" height="117.8" fill="#999"/></svg>